<svg width="50" height="50" viewBox="0 0 50 50" fill="none" xmlns="http://www.w3.org/2000/svg">
<path d="M28.93 25H25.96L26.02 22.9L20.08 16.93L22.09 14.62H25.96V6.88H18.94V25H15.97V9.43L18.58 6.88H15.61V4.27H26.32L28.93 6.88V14.26L26.32 16.87H23.89V17.26L28.93 22.24V25ZM31.0455 25H28.1055V22.78L25.8855 25H22.9155L20.3055 22.39V9.43H23.2755V22.39H28.1055V9.43H31.0455V25ZM26.1679 16.03L33.5779 8.71V11.89L30.9679 14.47L33.5779 17.11V25H30.6379V16.48H26.1679V25H23.1979V3.91L26.1679 0.939999V16.03Z" fill="#EB8317"/>
<path d="M21.07 25H24.04L23.98 27.1L29.92 33.07L27.91 35.38H24.04V43.12H31.06V25H34.03V40.57L31.42 43.12H34.39V45.73H23.68L21.07 43.12V35.74L23.68 33.13H26.11V32.74L21.07 27.76V25ZM18.9545 25H21.8945V27.22L24.1145 25H27.0845L29.6945 27.61V40.57H26.7245V27.61H21.8945V40.57H18.9545V25ZM23.8321 33.97L16.4221 41.29V38.11L19.0321 35.53L16.4221 32.89V25H19.3621V33.52H23.8321V25H26.8021V46.09L23.8321 49.06V33.97Z" fill="#EB8317"/>
<path d="M25 28.93V25.96L27.1 26.02L33.07 20.08L35.38 22.09V25.96H43.12V18.94H25V15.97H40.57L43.12 18.58V15.61H45.73V26.32L43.12 28.93H35.74L33.13 26.32V23.89H32.74L27.76 28.93H25ZM25 31.0455V28.1055H27.22L25 25.8855V22.9155L27.61 20.3055H40.57V23.2755H27.61V28.1055H40.57V31.0455H25ZM33.97 26.1679L41.29 33.5779H38.11L35.53 30.9679L32.89 33.5779H25V30.6379H33.52V26.1679H25V23.1979H46.09L49.06 26.1679H33.97Z" fill="#EB8317"/>
<path d="M25 21.07V24.04L22.9 23.98L16.93 29.92L14.62 27.91V24.04H6.88V31.06H25V34.03H9.43L6.88 31.42V34.39H4.27V23.68L6.88 21.07H14.26L16.87 23.68V26.11H17.26L22.24 21.07H25ZM25 18.9545V21.8945H22.78L25 24.1145V27.0845L22.39 29.6945H9.43V26.7245H22.39V21.8945H9.43V18.9545H25ZM16.03 23.8321L8.71 16.4221H11.89L14.47 19.0321L17.11 16.4221H25V19.3621H16.48V23.8321H25V26.8021H3.91L0.939999 23.8321H16.03Z" fill="#EB8317"/>
</svg>
